<svg width="17" height="19" viewBox="0 0 17 19" fill="none" xmlns="http://www.w3.org/2000/svg">
<path d="M7.49992 17.2733C7.75328 17.4196 8.04069 17.4966 8.33325 17.4966C8.62581 17.4966 8.91322 17.4196 9.16659 17.2733L14.9999 13.94C15.253 13.7938 15.4633 13.5837 15.6095 13.3306C15.7558 13.0776 15.833 12.7906 15.8333 12.4983V5.83162C15.833 5.53935 15.7558 5.25229 15.6095 4.99925C15.4633 4.74621 15.253 4.53609 14.9999 4.38995L9.16659 1.05662C8.91322 0.910339 8.62581 0.833328 8.33325 0.833328C8.04069 0.833328 7.75328 0.910339 7.49992 1.05662L1.66659 4.38995C1.41347 4.53609 1.20324 4.74621 1.05697 4.99925C0.910704 5.25229 0.833552 5.53935 0.833252 5.83162V12.4983C0.833552 12.7906 0.910704 13.0776 1.05697 13.3306C1.20324 13.5837 1.41347 13.7938 1.66659 13.94L7.49992 17.2733Z" stroke="#14161A" stroke-width="1.66667" stroke-linecap="round" stroke-linejoin="round"/>
<path d="M8.33325 17.4987V9.16536" stroke="#14161A" stroke-width="1.66667" stroke-linecap="round" stroke-linejoin="round"/>
<path d="M1.08325 4.99837L7.50242 8.94337C7.75519 9.08872 8.04167 9.16522 8.33325 9.16522C8.62483 9.16522 8.91131 9.08872 9.16408 8.94337L15.5833 4.99837" stroke="#14161A" stroke-width="1.66667" stroke-linecap="round" stroke-linejoin="round"/>
<path d="M4.58325 2.72395L12.0833 7.01562" stroke="#14161A" stroke-width="1.66667" stroke-linecap="round" stroke-linejoin="round"/>
</svg>
