<svg width="20" height="20" viewBox="0 0 20 20" fill="none" xmlns="http://www.w3.org/2000/svg">
<path fill-rule="evenodd" clip-rule="evenodd" d="M2.58918 4.78888C2.58918 3.57389 3.57362 2.58945 4.78861 2.58848H5.78959C6.37033 2.58848 6.92676 2.35793 7.33921 1.94937L8.03863 1.24897C8.89564 0.3871 10.2886 0.383209 11.1505 1.24022L11.1515 1.24119L11.1602 1.24897L11.8606 1.94937C12.2731 2.3589 12.8295 2.58848 13.4103 2.58848H14.4103C15.6253 2.58848 16.6107 3.57292 16.6107 4.78888V5.78791C16.6107 6.36865 16.8402 6.92605 17.2498 7.3385L17.9502 8.0389C18.812 8.89591 18.8169 10.2889 17.9599 11.1508L17.9589 11.1518L17.9502 11.1605L17.2498 11.8609C16.8402 12.2724 16.6107 12.8288 16.6107 13.4096V14.4105C16.6107 15.6255 15.6262 16.61 14.4112 16.61H14.4103H13.4083C12.8276 16.61 12.2702 16.8405 11.8587 17.25L11.1583 17.9495C10.3023 18.8113 8.91023 18.8162 8.04836 17.9611C8.04738 17.9602 8.04641 17.9592 8.04544 17.9582L8.03668 17.9495L7.33726 17.25C6.92578 16.8405 6.36839 16.6109 5.78764 16.61H4.78861C3.57362 16.61 2.58918 15.6255 2.58918 14.4105V13.4076C2.58918 12.8269 2.35863 12.2704 1.9491 11.859L1.24968 11.1586C0.387804 10.3025 0.38294 8.9105 1.23898 8.04863C1.23898 8.04765 1.23995 8.04668 1.24092 8.04571L1.24968 8.03695L1.9491 7.33656C2.35863 6.92411 2.58918 6.36768 2.58918 5.78597V4.78888Z" stroke="black" stroke-width="1.2" stroke-linecap="round" stroke-linejoin="round"/>
<path d="M7.02051 12.0208L12.0205 7.02072" stroke="#6C5DD3" stroke-width="1.2" stroke-linecap="round" stroke-linejoin="round"/>
<path d="M11.9556 11.3514L12.0757 11.3631C12.3493 11.4189 12.5551 11.6609 12.5552 11.951C12.5552 12.2411 12.3493 12.4831 12.0757 12.5389L11.9556 12.5506H11.9468C11.6154 12.5506 11.3462 12.2824 11.3462 11.951C11.3462 11.6196 11.6154 11.3514 11.9468 11.3514H11.9556Z" stroke="#6C5DD3" stroke-width="1.2" stroke-linecap="round" stroke-linejoin="round"/>
<path d="M7.09131 6.48709L7.21143 6.49881C7.485 6.55461 7.69089 6.79665 7.69092 7.0867C7.69092 7.37677 7.48501 7.61878 7.21143 7.67459L7.09131 7.68631H7.08252C6.75115 7.68631 6.48193 7.41807 6.48193 7.0867C6.48196 6.75536 6.75117 6.48709 7.08252 6.48709H7.09131Z" stroke="#6C5DD3" stroke-width="1.2" stroke-linecap="round" stroke-linejoin="round"/>
</svg>
