<svg width="40" height="36" viewBox="0 0 40 36" fill="none" xmlns="http://www.w3.org/2000/svg">
<path d="M26.1166 14.5413C26.4691 14.1889 26.6671 13.7109 26.6672 13.2125C26.6673 12.7141 26.4693 12.2361 26.1169 11.8836C25.7646 11.5311 25.2866 11.3331 24.7882 11.333C24.2898 11.3329 23.8117 11.5309 23.4593 11.8833L14.5619 20.7826C14.4072 20.9369 14.2927 21.127 14.2286 21.3359L13.3479 24.2373C13.3307 24.2949 13.3294 24.3562 13.3442 24.4145C13.3589 24.4728 13.3892 24.5261 13.4318 24.5686C13.4744 24.6111 13.5277 24.6413 13.586 24.656C13.6444 24.6707 13.7056 24.6693 13.7633 24.6519L16.6653 23.7719C16.8741 23.7084 17.0641 23.5947 17.2186 23.4406L26.1166 14.5413Z" stroke="#14161A" stroke-width="1.33333" stroke-linecap="round" stroke-linejoin="round"/>
</svg>
